Genre: Adventure | Drama
Language:English
IMDb:http://www.imdb.com/title/tt1034389/
Source:DVD5/IMAGINE Thanks!
Subtitles:Romana/English.foreign.parts


Format : MPEG-4
Format profile : Base Media
Codec ID : isom
File size : 1.10 GiB
Duration : 1h 49mn
Overall bit rate : 1 442 Kbps


Video
Format settings, CABAC : Yes
Format settings, ReFrames : 4 frames
Codec ID : avc1
Codec ID/Info : Advanced Video Coding
Duration : 1h 49mn
Bit rate mode : Variable
Bit rate : 1 267 Kbps
Width : 720 pixels
Height : 304 pixels
Display aspect ratio : 2.35:1
Frame rate mode : Constant
Frame rate : 25.000 fps
Color space : YUV
Chroma subsampling : 4:2:0
Bit depth : 8 bits
Scan type : Progressive
Bits/(Pixel*Frame) : 0.232
Stream size : 1 006 MiB (89%)
Writing library : x264


Audio
ID : 2
Format : AAC
Format/Info : Advanced Audio Codec
Format version : Version 4
Format profile : LC
Codec ID : 40
Duration : 1h 49mn
Bit rate mode : Variable
Bit rate : 152 Kbps
Channel(s) : 2 channels
Channel positions : Front: L R
Sampling rate : 44.1 KHz
Stream size : 119 MiB (11%)



Plot:
In Roman-ruled Britain, a young Roman soldier endeavors to honor his father's memory by finding his lost legion's golden emblem.
 
http://www.pix2links.com/images/16226052126312147835.png 
http://www.pix2links.com/images/71770803194708527056.png 
http://www.pix2links.com/images/39200592130597458641.png 
http://www.pix2links.com/images/78520830873695864313.png

Greets:

INK,CRYS,IMAGINE,LKRG,FXG,3Li,FLAWL3SS,TA,iLLUSiON,ViSiON,DTRG SAFCuk009,LU,TheFalcon007,MYSTiC,PrisM,Noir,WBZ,LAP,Rx,Kingdom,SAFCuk009+Fabreezy,HDLiTE,TWiZTED,ExtraTorrentRG.ELEKTRI4KA,MAGNAT,CM8
And to all the other p2p grps past and present.